<?xml version="1.0" standalone="no"?>
<!DOCTYPE svg PUBLIC "-//W3C//DTD SVG 20010904//EN"
 "http://www.w3.org/TR/2001/REC-SVG-20010904/DTD/svg10.dtd">
<svg version="1.0" xmlns="http://www.w3.org/2000/svg"
 width="800.000000pt" height="547.000000pt" viewBox="0 0 800.000000 547.000000"
 preserveAspectRatio="xMidYMid meet">

<g transform="translate(0.000000,547.000000) scale(0.100000,-0.100000)"
fill="#000000" stroke="none">
<path d="M2073 4568 c-15 -20 -25 -38 -20 -38 3 0 12 11 21 25 17 26 16 35 -1
13z"/>
<path d="M2032 4495 c-7 -14 -12 -32 -12 -39 0 -18 30 -43 62 -51 15 -4 52
-33 83 -66 54 -57 56 -61 50 -99 -5 -29 -3 -44 9 -55 8 -8 17 -11 20 -6 3 5
-1 12 -10 15 -12 5 -14 15 -9 50 7 44 7 44 -57 105 -34 33 -75 63 -90 66 -42
10 -54 31 -40 68 14 38 10 47 -6 12z"/>
<path d="M2095 3910 c10 -11 20 -20 23 -20 3 0 -3 9 -13 20 -10 11 -20 20 -23
20 -3 0 3 -9 13 -20z"/>
<path d="M4631 3904 c0 -11 3 -14 6 -6 3 7 2 16 -1 19 -3 4 -6 -2 -5 -13z"/>
<path d="M3535 3850 c21 -22 41 -40 44 -40 3 0 -13 18 -34 40 -21 22 -41 40
-44 40 -3 0 13 -18 34 -40z"/>
<path d="M4640 3876 c0 -2 8 -10 18 -17 15 -13 16 -12 3 4 -13 16 -21 21 -21
13z"/>
<path d="M1330 3856 c0 -2 8 -10 18 -17 15 -13 16 -12 3 4 -13 16 -21 21 -21
13z"/>
<path d="M2190 3805 c13 -14 26 -25 28 -25 3 0 -5 11 -18 25 -13 14 -26 25
-28 25 -3 0 5 -11 18 -25z"/>
<path d="M3590 3806 c0 -2 8 -10 18 -17 15 -13 16 -12 3 4 -13 16 -21 21 -21
13z"/>
<path d="M1420 3776 c0 -2 8 -10 18 -17 15 -13 16 -12 3 4 -13 16 -21 21 -21
13z"/>
<path d="M3639 3767 c15 -19 71 -61 71 -54 0 2 -19 19 -42 37 -24 19 -37 26
-29 17z"/>
<path d="M4680 3769 c0 -9 19 -33 43 -53 23 -20 57 -51 76 -69 27 -25 31 -26
18 -8 -9 14 -38 41 -64 61 -26 19 -53 47 -60 60 -8 17 -13 19 -13 9z"/>
<path d="M1470 3736 c0 -2 8 -10 18 -17 15 -13 16 -12 3 4 -13 16 -21 21 -21
13z"/>
<path d="M1510 3707 c0 -7 221 -180 275 -216 69 -45 30 -7 -50 49 -35 25 -101
73 -145 108 -44 35 -80 61 -80 59z"/>
<path d="M2301 3695 c0 -5 8 -26 19 -45 11 -19 19 -30 19 -25 0 6 -8 26 -19
45 -11 19 -19 31 -19 25z"/>
<path d="M2231 3674 c0 -11 3 -14 6 -6 3 7 2 16 -1 19 -3 4 -6 -2 -5 -13z"/>
<path d="M2216 3635 c-9 -26 -7 -32 5 -12 6 10 9 21 6 23 -2 3 -7 -2 -11 -11z"/>
<path d="M2040 3626 c0 -2 8 -10 18 -17 15 -13 16 -12 3 4 -13 16 -21 21 -21
13z"/>
<path d="M5200 3610 c8 -5 22 -9 30 -9 10 0 8 3 -5 9 -27 12 -43 12 -25 0z"/>
<path d="M4838 3542 c5 -96 10 -108 11 -27 0 39 -3 76 -7 82 -4 7 -6 -18 -4
-55z"/>
<path d="M2341 3584 c0 -11 3 -14 6 -6 3 7 2 16 -1 19 -3 4 -6 -2 -5 -13z"/>
<path d="M5250 3596 c0 -2 11 -6 25 -8 13 -3 22 -1 19 3 -5 9 -44 13 -44 5z"/>
<path d="M2080 3586 c0 -2 8 -10 18 -17 15 -13 16 -12 3 4 -13 16 -21 21 -21
13z"/>
<path d="M2177 3545 c-24 -50 -20 -58 4 -12 11 22 19 41 17 43 -3 2 -12 -12
-21 -31z"/>
<path d="M5350 3538 c24 -27 45 -48 47 -48 8 0 0 9 -44 50 l-48 45 45 -47z"/>
<path d="M2332 3525 c0 -16 2 -22 5 -12 2 9 2 23 0 30 -3 6 -5 -1 -5 -18z"/>
<path d="M2140 3448 c0 -49 5 -47 13 5 3 20 2 37 -4 37 -5 0 -9 -19 -9 -42z"/>
<path d="M2322 3465 c0 -16 2 -22 5 -12 2 9 2 23 0 30 -3 6 -5 -1 -5 -18z"/>
<path d="M1836 3437 c3 -10 9 -15 12 -12 3 3 0 11 -7 18 -10 9 -11 8 -5 -6z"/>
<path d="M3466 3412 c-22 -27 -24 -32 -7 -17 20 17 47 55 39 55 -2 0 -16 -17
-32 -38z"/>
<path d="M2122 3400 c0 -19 2 -27 5 -17 2 9 2 25 0 35 -3 9 -5 1 -5 -18z"/>
<path d="M2262 3374 c-30 -30 -55 -54 -57 -54 -2 0 -15 19 -29 43 -28 45 -35
44 -11 -2 8 -16 64 -75 125 -132 134 -124 165 -171 164 -249 -1 -55 -6 -70
-96 -272 -44 -100 -45 -177 -1 -308 42 -123 48 -161 33 -204 -16 -48 -58 -78
-160 -114 -47 -17 -92 -33 -100 -36 -13 -5 -15 15 -15 151 -1 156 -1 160 -37
265 -20 59 -56 151 -79 205 -23 54 -57 141 -76 193 -19 52 -32 80 -29 62 3
-19 31 -97 61 -174 31 -78 53 -143 51 -146 -3 -2 -26 -7 -51 -10 l-47 -5 -66
70 c-83 87 -176 171 -145 130 12 -16 39 -42 59 -58 21 -16 63 -57 95 -90 l56
-61 58 4 59 3 33 -97 c44 -131 58 -248 44 -363 -8 -65 -15 -93 -27 -100 -89
-54 -109 -105 -101 -263 10 -195 -6 -225 -172 -322 -152 -89 -177 -133 -168
-300 4 -93 4 -95 -38 -197 -68 -161 -116 -217 -315 -371 -137 -105 -230 -202
-230 -240 0 -22 17 -10 52 39 39 54 118 125 261 236 120 93 176 158 223 260
32 68 35 71 76 78 106 18 255 85 363 163 28 20 113 91 190 158 163 140 250
206 318 241 59 29 79 25 170 -40 116 -82 164 -96 191 -54 9 12 27 67 42 122
52 198 63 200 214 45 91 -94 111 -110 137 -110 41 0 57 23 89 130 15 47 35
106 46 131 34 81 86 87 259 34 130 -41 205 -47 245 -20 26 17 27 17 37 -1 6
-10 20 -26 31 -36 80 -68 96 -87 96 -116 0 -23 -9 -35 -40 -57 -22 -15 -40
-33 -40 -40 0 -13 32 -45 44 -45 5 0 -2 9 -15 20 l-24 20 43 37 c26 23 42 47
42 60 0 37 -22 72 -57 94 -18 12 -45 36 -59 55 l-26 33 59 117 c71 143 132
214 183 214 53 0 108 -33 208 -124 131 -120 182 -141 264 -112 41 15 230 117
225 122 -2 2 -48 -21 -103 -51 -110 -61 -163 -80 -206 -71 -38 7 -94 48 -193
136 -94 84 -139 110 -195 110 -62 0 -103 -44 -179 -194 -36 -72 -76 -137 -93
-151 -41 -35 -93 -32 -230 11 -71 22 -135 35 -171 36 -93 1 -108 -19 -172
-234 -10 -31 -28 -66 -40 -78 -21 -20 -25 -20 -52 -7 -15 8 -53 43 -82 77 -83
95 -120 128 -153 135 -37 9 -64 -14 -80 -67 -6 -21 -14 -38 -17 -38 -4 0 -15
29 -25 66 -16 57 -17 68 -5 91 13 25 77 71 144 103 40 20 130 112 183 188 65
94 41 74 -34 -28 -65 -89 -107 -126 -192 -169 -24 -12 -61 -38 -82 -58 -45
-40 -49 -64 -25 -133 24 -69 20 -87 -35 -140 -28 -27 -50 -52 -50 -57 0 -4 -4
-14 -9 -22 -7 -11 -22 -5 -75 33 -90 64 -130 80 -168 67 -56 -20 -191 -118
-345 -250 -227 -194 -344 -267 -489 -307 -55 -14 -67 -15 -74 -4 -16 26 66
213 127 288 56 69 72 73 241 70 196 -4 207 4 281 188 18 45 44 93 59 107 37
34 109 68 227 107 283 93 320 157 261 447 -33 160 -38 192 -32 202 3 5 34 3
68 -5 93 -20 139 -17 278 16 145 35 173 36 289 13 140 -26 184 -8 263 111 22
33 49 70 60 82 l19 21 115 -57 c64 -32 111 -52 105 -46 -6 6 -53 31 -104 56
-64 32 -92 50 -91 62 3 32 -35 -4 -97 -94 -65 -95 -96 -123 -149 -133 -32 -5
-164 15 -177 28 -8 9 36 75 95 141 29 33 58 69 64 81 5 11 -3 4 -19 -15 -15
-19 -50 -59 -77 -90 -26 -30 -55 -69 -63 -86 -14 -29 -19 -31 -67 -32 -29 0
-92 -10 -142 -22 -154 -37 -182 -39 -279 -23 -49 8 -91 16 -93 18 -14 13 24
68 93 137 49 49 86 95 91 112 5 20 -2 58 -20 120 -33 117 -33 140 2 176 40 39
117 60 231 61 53 1 88 3 79 6 -10 2 -18 12 -18 20 0 9 -16 35 -35 59 -19 23
-35 50 -35 59 0 9 37 53 83 98 53 52 61 62 23 28 -132 -116 -136 -126 -81
-191 52 -62 48 -70 -37 -70 -91 0 -180 -25 -219 -60 -37 -36 -38 -71 -3 -191
15 -53 23 -101 20 -115 -4 -14 -42 -59 -85 -100 -44 -42 -85 -89 -92 -105 -16
-39 -7 -148 22 -264 13 -54 22 -125 23 -176 1 -77 -2 -89 -27 -127 -32 -49
-42 -52 -51 -16 -4 15 -41 60 -82 101 -108 107 -120 144 -88 285 12 52 14 87
8 137 -4 36 -7 80 -6 96 2 28 1 28 -8 7 -6 -15 -6 -48 2 -96 10 -63 9 -83 -5
-133 -21 -72 -22 -152 -3 -196 7 -18 41 -59 75 -92 66 -63 101 -112 101 -138
0 -22 -30 -36 -190 -92 -226 -78 -250 -97 -306 -240 -34 -88 -61 -129 -97
-150 -25 -15 -44 -16 -140 -9 -138 9 -172 7 -207 -11 -41 -21 -97 -91 -133
-167 -18 -37 -35 -67 -39 -67 -12 -1 -9 128 4 171 14 47 59 88 166 151 85 50
135 97 151 140 6 16 11 96 11 179 0 216 11 232 210 303 125 44 166 68 191 109
27 44 24 101 -11 209 -61 191 -60 224 15 388 64 141 82 209 67 265 -18 66 -54
114 -144 190 -110 95 -110 95 -46 154 29 27 50 51 48 53 -3 2 -29 -20 -58 -49z
m654 -1841 c-28 -115 -43 -138 -80 -127 -29 9 -28 7 -16 40 9 24 86 113 99
114 2 0 0 -12 -3 -27z"/>
<path d="M3040 3360 c-9 -6 -10 -10 -3 -10 6 0 15 5 18 10 8 12 4 12 -15 0z"/>
<path d="M2131 3344 c0 -11 3 -14 6 -6 3 7 2 16 -1 19 -3 4 -6 -2 -5 -13z"/>
<path d="M2928 3343 c12 -2 30 -2 40 0 9 3 -1 5 -23 4 -22 0 -30 -2 -17 -4z"/>
<path d="M1871 3324 c0 -11 3 -14 6 -6 3 7 2 16 -1 19 -3 4 -6 -2 -5 -13z"/>
<path d="M2878 3333 c7 -3 16 -2 19 1 4 3 -2 6 -13 5 -11 0 -14 -3 -6 -6z"/>
<path d="M2828 3323 c6 -2 18 -2 25 0 6 3 1 5 -13 5 -14 0 -19 -2 -12 -5z"/>
<path d="M2142 3300 c0 -14 2 -19 5 -12 2 6 2 18 0 25 -3 6 -5 1 -5 -13z"/>
<path d="M2114 3248 l-19 -23 23 19 c21 18 27 26 19 26 -2 0 -12 -10 -23 -22z"/>
<path d="M3868 3253 c7 -3 16 -2 19 1 4 3 -2 6 -13 5 -11 0 -14 -3 -6 -6z"/>
<path d="M3948 3253 c7 -3 16 -2 19 1 4 3 -2 6 -13 5 -11 0 -14 -3 -6 -6z"/>
<path d="M2030 3184 c-27 -25 -71 -54 -99 -64 l-50 -19 -4 37 c-2 20 -4 1 -4
-43 0 -53 2 -67 6 -42 5 35 11 40 58 60 43 19 169 117 149 117 -4 0 -29 -21
-56 -46z"/>
<path d="M4031 3226 c2 -2 15 -9 29 -15 24 -11 24 -11 6 3 -16 13 -49 24 -35
12z"/>
<path d="M3670 3149 c-58 -39 -127 -82 -155 -95 -27 -13 -44 -24 -37 -24 21 0
83 35 188 106 99 67 122 84 113 84 -2 0 -52 -32 -109 -71z"/>
<path d="M4117 3179 c7 -7 15 -10 18 -7 3 3 -2 9 -12 12 -14 6 -15 5 -6 -5z"/>
<path d="M1500 3168 c-19 -5 -52 -14 -72 -19 -21 -5 -53 -26 -73 -46 -22 -23
-49 -39 -73 -43 l-37 -8 32 -1 c25 -1 44 9 82 44 33 28 64 46 88 51 88 15 107
20 98 25 -6 3 -26 2 -45 -3z"/>
<path d="M2610 3091 c5 -11 15 -23 21 -27 6 -3 3 5 -6 20 -20 30 -30 35 -15 7z"/>
<path d="M2669 3001 c14 -27 27 -48 29 -46 5 5 -36 83 -47 89 -5 3 3 -16 18
-43z"/>
<path d="M2901 3024 c0 -11 3 -14 6 -6 3 7 2 16 -1 19 -3 4 -6 -2 -5 -13z"/>
<path d="M3413 3023 c9 -2 25 -2 35 0 9 3 1 5 -18 5 -19 0 -27 -2 -17 -5z"/>
<path d="M1540 3011 c0 -6 4 -13 10 -16 6 -3 7 1 4 9 -7 18 -14 21 -14 7z"/>
<path d="M3338 3013 c12 -2 30 -2 40 0 9 3 -1 5 -23 4 -22 0 -30 -2 -17 -4z"/>
<path d="M4458 3013 c7 -3 16 -2 19 1 4 3 -2 6 -13 5 -11 0 -14 -3 -6 -6z"/>
<path d="M1882 2985 c0 -16 2 -22 5 -12 2 9 2 23 0 30 -3 6 -5 -1 -5 -18z"/>
<path d="M1590 2945 c19 -22 39 -44 44 -50 5 -5 4 -1 -2 10 -6 11 -25 33 -44
50 l-33 30 35 -40z"/>
<path d="M2370 2978 c3 -3 21 -10 40 -17 19 -6 30 -7 25 -2 -6 5 -23 13 -40
17 -16 4 -28 5 -25 2z"/>
<path d="M2912 2955 c0 -16 2 -22 5 -12 2 9 2 23 0 30 -3 6 -5 -1 -5 -18z"/>
<path d="M2701 2930 c0 -8 4 -24 9 -35 5 -13 9 -14 9 -5 0 8 -4 24 -9 35 -5
13 -9 14 -9 5z"/>
<path d="M2901 2894 c0 -11 3 -14 6 -6 3 7 2 16 -1 19 -3 4 -6 -2 -5 -13z"/>
<path d="M1655 2850 c9 -16 18 -30 21 -30 2 0 -2 14 -11 30 -9 17 -18 30 -21
30 -2 0 2 -13 11 -30z"/>
<path d="M2721 2865 c0 -5 10 -44 24 -85 l24 -75 -80 -75 c-43 -41 -79 -82
-79 -90 0 -8 8 -1 19 15 10 17 48 55 85 84 89 74 186 191 186 226 0 6 -13 -12
-29 -40 -28 -48 -87 -113 -95 -104 -2 2 -15 38 -29 79 -14 41 -26 71 -26 65z"/>
<path d="M3575 2720 c-9 -16 -13 -30 -11 -30 3 0 12 14 21 30 9 17 13 30 11
30 -3 0 -12 -13 -21 -30z"/>
<path d="M3955 2739 c-4 -6 -4 -13 -1 -16 3 -4 6 -1 6 5 0 29 42 7 91 -45 29
-32 48 -50 43 -41 -5 10 -29 38 -53 63 -42 44 -73 56 -86 34z"/>
<path d="M3941 2683 c0 -17 -8 -39 -17 -47 -8 -9 -11 -16 -5 -16 17 0 33 39
28 68 -4 25 -4 25 -6 -5z"/>
<path d="M3835 2652 c6 -5 24 -12 40 -16 34 -7 15 7 -25 19 -16 5 -22 4 -15
-3z"/>
<path d="M4651 2608 l-43 -53 44 47 c25 25 55 48 69 51 24 4 24 4 -2 6 -20 1
-36 -11 -68 -51z"/>
<path d="M4760 2646 c0 -2 7 -7 16 -10 8 -3 12 -2 9 4 -6 10 -25 14 -25 6z"/>
<path d="M4110 2616 c0 -3 9 -10 20 -16 11 -6 20 -8 20 -6 0 3 -9 10 -20 16
-11 6 -20 8 -20 6z"/>
<path d="M4203 2573 c9 -2 25 -2 35 0 9 3 1 5 -18 5 -19 0 -27 -2 -17 -5z"/>
<path d="M4565 2535 c-14 -13 -25 -30 -25 -36 0 -7 1 -10 3 -8 1 2 15 19 31
37 35 37 27 44 -9 7z"/>
<path d="M4030 2506 c0 -2 14 -14 30 -26 17 -12 30 -19 30 -16 0 2 -13 14 -30
26 -16 12 -30 19 -30 16z"/>
<path d="M3394 2208 l-19 -23 23 19 c12 11 22 21 22 23 0 8 -8 2 -26 -19z"/>
<path d="M3294 2124 c-18 -14 -18 -14 6 -3 31 14 36 19 24 19 -6 0 -19 -7 -30
-16z"/>
<path d="M5343 2123 c9 -2 25 -2 35 0 9 3 1 5 -18 5 -19 0 -27 -2 -17 -5z"/>
<path d="M5225 2110 c-3 -6 1 -7 9 -4 18 7 21 14 7 14 -6 0 -13 -4 -16 -10z"/>
<path d="M5167 2076 c-48 -29 -61 -43 -22 -23 31 16 74 46 65 46 -3 0 -22 -10
-43 -23z"/>
<path d="M5080 2030 c-8 -5 -37 -10 -65 -10 -27 -1 -63 -8 -80 -16 -16 -8 -22
-12 -13 -10 72 20 115 18 169 -9 74 -38 85 -47 239 -198 93 -91 108 -104 50
-42 -143 152 -221 220 -279 244 -37 16 -39 24 -8 39 12 6 18 11 12 11 -5 0
-17 -4 -25 -9z"/>
<path d="M6715 1923 c-36 -33 -44 -44 -20 -25 38 28 93 83 84 82 -2 -1 -31
-26 -64 -57z"/>
<path d="M6630 1850 c-6 -11 -8 -20 -6 -20 3 0 10 9 16 20 6 11 8 20 6 20 -3
0 -10 -9 -16 -20z"/>
<path d="M6593 1772 c-12 -26 -20 -48 -18 -51 3 -2 14 17 26 43 27 62 20 69
-8 8z"/>
<path d="M6142 1642 c-2 -48 1 -63 18 -83 l21 -24 -17 28 c-13 21 -15 40 -10
82 3 30 3 55 -1 55 -5 0 -9 -26 -11 -58z"/>
<path d="M5470 1656 c0 -2 8 -10 18 -17 15 -13 16 -12 3 4 -13 16 -21 21 -21
13z"/>
<path d="M5510 1626 c0 -2 8 -10 18 -17 15 -13 16 -12 3 4 -13 16 -21 21 -21
13z"/>
<path d="M5658 1553 c7 -3 16 -2 19 1 4 3 -2 6 -13 5 -11 0 -14 -3 -6 -6z"/>
<path d="M6186 1517 c3 -10 9 -15 12 -12 3 3 0 11 -7 18 -10 9 -11 8 -5 -6z"/>
<path d="M6201 1474 c0 -11 3 -14 6 -6 3 7 2 16 -1 19 -3 4 -6 -2 -5 -13z"/>
<path d="M4086 1430 c11 -14 33 -46 48 -72 15 -27 29 -48 32 -48 10 0 -50 96
-75 120 l-25 25 20 -25z"/>
<path d="M6211 1443 c-1 -7 8 -22 19 -33 11 -11 26 -20 33 -19 6 0 2 5 -9 11
-12 5 -27 20 -32 32 -6 11 -11 15 -11 9z"/>
<path d="M6310 1376 c0 -2 8 -10 18 -17 15 -13 16 -12 3 4 -13 16 -21 21 -21
13z"/>
<path d="M4425 1312 c22 -20 42 -36 44 -35 7 5 -62 73 -73 73 -6 0 7 -17 29
-38z"/>
<path d="M4213 1293 c9 -2 23 -2 30 0 6 3 -1 5 -18 5 -16 0 -22 -2 -12 -5z"/>
<path d="M4450 1241 c-12 -23 -14 -88 -2 -95 4 -2 6 13 4 34 -2 21 1 47 7 59
7 12 9 21 7 21 -3 0 -10 -9 -16 -19z"/>
<path d="M4505 1100 c10 -11 20 -20 23 -20 3 0 -3 9 -13 20 -10 11 -20 20 -23
20 -3 0 3 -9 13 -20z"/>
<path d="M6808 1013 c6 -2 18 -2 25 0 6 3 1 5 -13 5 -14 0 -19 -2 -12 -5z"/>
<path d="M6733 1003 c9 -2 23 -2 30 0 6 3 -1 5 -18 5 -16 0 -22 -2 -12 -5z"/>
<path d="M6600 991 c-25 -3 -40 -9 -35 -12 6 -3 39 0 75 7 67 12 40 16 -40 5z"/>
<path d="M7201 658 c0 -43 2 -78 7 -78 4 0 6 24 4 52 -5 95 -9 104 -11 26z"/>
</g>
</svg>
